<svg width="75" height="74" viewBox="0 0 75 74" fill="none" xmlns="http://www.w3.org/2000/svg">
<path d="M46.875 58.5833H28.125V38.5417V26.5167C28.125 25.4949 28.9645 24.6667 30 24.6667H45C46.0356 24.6667 46.875 25.4949 46.875 26.5167V44.7083V58.5833Z" stroke="white" stroke-width="4" stroke-linecap="round" stroke-linejoin="round"/>
<path d="M46.875 15.4167H28.125" stroke="white" stroke-width="4" stroke-linecap="round" stroke-linejoin="round"/>
<path d="M63.75 58.5833H46.875V46.5583C46.875 45.5365 47.7144 44.7083 48.75 44.7083H63.75C64.7856 44.7083 65.625 45.5365 65.625 46.5583V56.7333C65.625 57.7552 64.7856 58.5833 63.75 58.5833Z" stroke="white" stroke-width="4" stroke-linecap="round" stroke-linejoin="round"/>
<path d="M28.125 58.5833V40.3917C28.125 39.3698 27.2855 38.5417 26.25 38.5417H11.25C10.2145 38.5417 9.375 39.3698 9.375 40.3917V56.7333C9.375 57.7551 10.2145 58.5833 11.25 58.5833H28.125Z" stroke="white" stroke-width="4" stroke-linecap="round" stroke-linejoin="round"/>
</svg>
