<svg width="83" height="71" viewBox="0 0 83 71" fill="none" xmlns="http://www.w3.org/2000/svg">
<path d="M41.5002 44.375C47.2301 44.375 51.8752 40.4015 51.8752 35.5C51.8752 30.5985 47.2301 26.625 41.5002 26.625C35.7702 26.625 31.1252 30.5985 31.1252 35.5C31.1252 40.4015 35.7702 44.375 41.5002 44.375Z" stroke="#F5F5F5" stroke-width="4" stroke-linecap="round" stroke-linejoin="round"/>
<path d="M67.0918 44.375C66.6315 45.2673 66.4941 46.2571 66.6976 47.2167C66.901 48.1764 67.4358 49.0619 68.2331 49.7592L68.4406 49.9367C69.0837 50.4862 69.5938 51.1387 69.9419 51.857C70.29 52.5752 70.4691 53.3452 70.4691 54.1227C70.4691 54.9002 70.29 55.6702 69.9419 56.3884C69.5938 57.1067 69.0837 57.7592 68.4406 58.3087C67.7982 58.8588 67.0354 59.2953 66.1957 59.593C65.356 59.8908 64.456 60.044 63.547 60.044C62.6381 60.044 61.738 59.8908 60.8984 59.593C60.0587 59.2953 59.2959 58.8588 58.6535 58.3087L58.446 58.1312C57.6309 57.4492 56.5957 56.9917 55.4739 56.8177C54.352 56.6437 53.1949 56.7612 52.1518 57.155C51.129 57.53 50.2566 58.1527 49.6421 58.9464C49.0277 59.7401 48.6979 60.6701 48.6935 61.6221V62.125C48.6935 63.6942 47.9648 65.1991 46.6676 66.3087C45.3705 67.4183 43.6112 68.0417 41.7768 68.0417C39.9424 68.0417 38.1831 67.4183 36.886 66.3087C35.5889 65.1991 34.8602 63.6942 34.8602 62.125V61.8587C34.8334 60.8795 34.4629 59.9299 33.7968 59.1332C33.1307 58.3366 32.1998 57.7297 31.1252 57.3917C30.0821 56.9979 28.925 56.8804 27.8031 57.0544C26.6813 57.2284 25.6461 57.6859 24.831 58.3679L24.6235 58.5454C23.9811 59.0955 23.2183 59.5319 22.3786 59.8297C21.539 60.1274 20.6389 60.2807 19.73 60.2807C18.821 60.2807 17.921 60.1274 17.0813 59.8297C16.2416 59.5319 15.4788 59.0955 14.8364 58.5454C14.1933 57.9959 13.6832 57.3434 13.3351 56.6251C12.987 55.9068 12.8078 55.1369 12.8078 54.3594C12.8078 53.5818 12.987 52.8119 13.3351 52.0936C13.6832 51.3754 14.1933 50.7228 14.8364 50.1733L15.0439 49.9958C15.8412 49.2986 16.376 48.4131 16.5794 47.4534C16.7828 46.4937 16.6455 45.5039 16.1852 44.6117C15.7468 43.7367 15.0189 42.9904 14.091 42.4648C13.1632 41.9392 12.0759 41.6571 10.9631 41.6533H10.3752C8.54075 41.6533 6.78147 41.03 5.48434 39.9204C4.18721 38.8108 3.4585 37.3059 3.4585 35.7367C3.4585 34.1675 4.18721 32.6625 5.48434 31.5529C6.78147 30.4434 8.54075 29.82 10.3752 29.82H10.6864C11.8311 29.7971 12.9413 29.4801 13.8726 28.9103C14.8039 28.3405 15.5133 27.5443 15.9085 26.625C16.3689 25.7327 16.5062 24.7429 16.3028 23.7833C16.0993 22.8236 15.5645 21.938 14.7672 21.2408L14.5597 21.0633C13.9167 20.5138 13.4065 19.8613 13.0584 19.143C12.7103 18.4247 12.5312 17.6548 12.5312 16.8773C12.5312 16.0997 12.7103 15.3298 13.0584 14.6116C13.4065 13.8933 13.9167 13.2407 14.5597 12.6912C15.2021 12.1411 15.9649 11.7047 16.8046 11.407C17.6443 11.1092 18.5443 10.956 19.4533 10.956C20.3622 10.956 21.2623 11.1092 22.102 11.407C22.9416 11.7047 23.7045 12.1411 24.3468 12.6912L24.5543 12.8687C25.3694 13.5507 26.4046 14.0083 27.5265 14.1823C28.6483 14.3563 29.8054 14.2388 30.8485 13.845H31.1252C32.148 13.47 33.0204 12.8473 33.6348 12.0536C34.2493 11.2599 34.5791 10.3299 34.5835 9.37791V8.87499C34.5835 7.3058 35.3122 5.80087 36.6093 4.69128C37.9065 3.58169 39.6657 2.95833 41.5002 2.95833C43.3346 2.95833 45.0939 3.58169 46.391 4.69128C47.6881 5.80087 48.4168 7.3058 48.4168 8.87499V9.14124C48.4213 10.0932 48.751 11.0233 49.3655 11.817C49.9799 12.6106 50.8523 13.2333 51.8752 13.6083C52.9182 14.0021 54.0753 14.1196 55.1972 13.9456C56.3191 13.7716 57.3543 13.3141 58.1693 12.6321L58.3768 12.4546C59.0192 11.9045 59.782 11.4681 60.6217 11.1703C61.4614 10.8726 62.3614 10.7193 63.2704 10.7193C64.1793 10.7193 65.0794 10.8726 65.919 11.1703C66.7587 11.4681 67.5215 11.9045 68.1639 12.4546C68.807 13.0041 69.3172 13.6566 69.6652 14.3749C70.0133 15.0932 70.1925 15.8631 70.1925 16.6406C70.1925 17.4182 70.0133 18.1881 69.6652 18.9063C69.3172 19.6246 68.807 20.2772 68.1639 20.8267L67.9564 21.0042C67.1591 21.7014 66.6243 22.5869 66.4209 23.5466C66.2175 24.5063 66.3548 25.496 66.8152 26.3883V26.625C67.2535 27.5 67.9815 28.2462 68.9093 28.7718C69.8371 29.2975 70.9244 29.5795 72.0372 29.5833H72.6252C74.4596 29.5833 76.2189 30.2067 77.516 31.3163C78.8131 32.4259 79.5418 33.9308 79.5418 35.5C79.5418 37.0692 78.8131 38.5741 77.516 39.6837C76.2189 40.7933 74.4596 41.4167 72.6252 41.4167H72.3139C71.2011 41.4205 70.1138 41.7025 69.186 42.2281C68.2581 42.7538 67.5302 43.5 67.0918 44.375Z" stroke="#F5F5F5" stroke-width="4" stroke-linecap="round" stroke-linejoin="round"/>
</svg>
