<svg width="1534" height="875" viewBox="0 0 1534 875" fill="none" xmlns="http://www.w3.org/2000/svg">
<rect width="267.686" height="266.425" rx="30" transform="matrix(0.925232 -0.379403 0.383744 0.92344 517.633 -86.0925)" fill="#AFA27D"/>
<rect width="267.686" height="266.425" rx="30" transform="matrix(0.925232 -0.379403 0.383744 0.92344 745.933 463.29)" fill="#AFA27D"/>
<rect width="267.686" height="266.425" rx="30" transform="matrix(0.925232 -0.379403 0.383744 0.92344 756.019 137.654)" fill="#AFA27D"/>
<rect width="267.686" height="266.425" rx="30" transform="matrix(0.925232 -0.379403 0.383744 0.92344 1008.37 677.177)" fill="#AFA27D"/>
<rect width="267.686" height="266.425" rx="30" transform="matrix(0.925232 -0.379403 0.383744 0.92344 -283.091 242.254)" fill="#AFA27D"/>
<rect width="267.686" height="266.425" rx="30" transform="matrix(0.925232 -0.379403 0.383744 0.92344 -54.791 791.637)" fill="#AFA27D"/>
<rect width="267.686" height="266.425" rx="30" transform="matrix(0.925232 -0.379403 0.383744 0.92344 784.539 -195.541)" fill="#AFA27D"/>
<rect width="267.686" height="266.425" rx="30" transform="matrix(0.925232 -0.379403 0.383744 0.92344 -44.7061 466.001)" fill="#AFA27D"/>
<rect width="267.686" height="266.425" rx="30" transform="matrix(0.925232 -0.379403 0.383744 0.92344 1022.93 28.2053)" fill="#AFA27D"/>
<rect width="267.686" height="266.425" rx="30" transform="matrix(0.925232 -0.379403 0.383744 0.92344 1275.27 567.728)" fill="#AFA27D"/>
<rect width="267.686" height="266.425" rx="30" transform="matrix(0.925232 -0.379403 0.383744 0.92344 -16.1846 132.805)" fill="#AFA27D"/>
<rect width="267.686" height="266.425" rx="30" transform="matrix(0.925232 -0.379403 0.383744 0.92344 212.117 682.188)" fill="#AFA27D"/>
<rect width="267.686" height="266.425" rx="30" transform="matrix(0.925232 -0.379403 0.383744 0.92344 222.203 356.552)" fill="#AFA27D"/>
<rect width="267.686" height="266.425" rx="30" transform="matrix(0.925232 -0.379403 0.383744 0.92344 474.55 896.074)" fill="#AFA27D"/>
<rect width="267.686" height="266.425" rx="30" transform="matrix(0.925232 -0.379403 0.383744 0.92344 1289.84 -81.2437)" fill="#AFA27D"/>
<rect width="267.686" height="266.425" rx="30" transform="matrix(0.925232 -0.379403 0.383744 0.92344 250.722 23.3564)" fill="#AFA27D"/>
<rect width="267.686" height="266.425" rx="30" transform="matrix(0.925232 -0.379403 0.383744 0.92344 479.026 572.739)" fill="#AFA27D"/>
<rect width="267.686" height="266.425" rx="30" transform="matrix(0.925232 -0.379403 0.383744 0.92344 489.111 247.103)" fill="#AFA27D"/>
<rect width="267.686" height="266.425" rx="30" transform="matrix(0.925232 -0.379403 0.383744 0.92344 1279.75 244.392)" fill="#AFA27D"/>
<rect width="267.686" height="266.425" rx="30" transform="matrix(0.925232 -0.379403 0.383744 0.92344 741.457 786.625)" fill="#AFA27D"/>
<rect width="267.686" height="266.425" rx="30" transform="matrix(0.925232 -0.379403 0.383744 0.92344 1012.84 353.841)" fill="#AFA27D"/>
<rect width="267.686" height="266.425" rx="30" transform="matrix(0.925232 -0.379403 0.383744 0.92344 -311.613 575.45)" fill="#AFA27D"/>
<rect width="267.686" height="266.425" rx="30" transform="matrix(0.925232 -0.379403 0.383744 0.92344 -321.7 901.086)" fill="#AFA27D"/>
</svg>
